# xmcd
#
# Track frame offsets:
#	150
#	11735
#	24584
#	34106
#	45811
#	54614
#	66632
#	76546
#	87054
#	96909
#	108400
#	122505
#	134470
#	147691
#	158138
#
# Disc length: 2270 seconds
#
# Revision: 1
# Processed by: cddbd v1.5.2PL0 Copyright (c) Steve Scherf et al.
# Submitted via: audiograbber 1.83.01
#
DISCID=c208dc0f
DTITLE=Various Artist - Golden Age of Country: Hard to Find Hits [Disc 1]
DYEAR=2009
DGENRE=Country
TTITLE0=Red Sovine and Webb Pierce - Why Baby Why
TTITLE1=Red Foley - Chattanooga Shoe Shine Boy
TTITLE2=Burl Ives - A Little Bit of Teary
TTITLE3=Ernest Tubb - Thanks a Lot
TTITLE4=Webb Pierce - I Ain't Never
TTITLE5=Hawkshaw Hawkins: Lonesome 7 - 7203
TTITLE6=Dave Dudley - Six Days on the Road
TTITLE7=Loretta Lynn - I'm a Honky Tonk Girl
TTITLE8=Ned Miller - From a Jack to a King
TTITLE9=Leon Ashley - Laura (What's He Got That I Ain't Got?)
TTITLE10=Johnny Wright - Hello Vietnam
TTITLE11=Bobby Edwards -  You're the Reason
TTITLE12=Jack Greene - Statue of a Fool
TTITLE13=Warner Mack - The Bridge Washed Out
TTITLE14=Bill Anderson and Jan Howard - For Loving You
EXTD=
EXTT0=
EXTT1=
EXTT2=
EXTT3=
EXTT4=
EXTT5=
EXTT6=
EXTT7=
EXTT8=
EXTT9=
EXTT10=
EXTT11=
EXTT12=
EXTT13=
EXTT14=
PLAYORDER=
